<mxfile host="app.diagrams.net" agent="Mozilla/5.0 (Windows NT 10.0; Win64; x64) AppleWebKit/537.36 (KHTML, like Gecko) Chrome/133.0.0.0 Safari/537.36 OPR/118.0.0.0" version="27.1.0">
  <diagram name="Página-1" id="7jb1fQsu0OTIIQVQDQBL">
    <mxGraphModel dx="1608" dy="1616" grid="1" gridSize="10" guides="1" tooltips="1" connect="1" arrows="1" fold="1" page="1" pageScale="1" pageWidth="827" pageHeight="1169" math="0" shadow="0">
      <root>
        <mxCell id="0" />
        <mxCell id="1" parent="0" />
        <mxCell id="xQBhhkXORlxdgsrn-lzs-17" value="" style="whiteSpace=wrap;html=1;aspect=fixed;" parent="1" vertex="1">
          <mxGeometry x="-710" y="150" width="540" height="540" as="geometry" />
        </mxCell>
        <mxCell id="xQBhhkXORlxdgsrn-lzs-23" style="edgeStyle=orthogonalEdgeStyle;rounded=0;orthogonalLoop=1;jettySize=auto;html=1;entryX=0;entryY=0.5;entryDx=0;entryDy=0;strokeColor=default;startArrow=none;startFill=0;endArrow=none;curved=0;shadow=0;flowAnimation=0;exitX=0.75;exitY=0.1;exitDx=0;exitDy=0;exitPerimeter=0;" parent="1" source="xQBhhkXORlxdgsrn-lzs-18" target="xQBhhkXORlxdgsrn-lzs-19" edge="1">
          <mxGeometry relative="1" as="geometry">
            <mxPoint x="-720" y="390" as="sourcePoint" />
            <Array as="points">
              <mxPoint x="-680" y="396" />
              <mxPoint x="-680" y="220" />
            </Array>
          </mxGeometry>
        </mxCell>
        <mxCell id="xQBhhkXORlxdgsrn-lzs-29" style="edgeStyle=orthogonalEdgeStyle;rounded=0;orthogonalLoop=1;jettySize=auto;html=1;exitX=1;exitY=0.3333333333333333;exitDx=0;exitDy=0;exitPerimeter=0;entryX=0;entryY=0.5;entryDx=0;entryDy=0;endArrow=none;startFill=0;" parent="1" source="xQBhhkXORlxdgsrn-lzs-18" target="xQBhhkXORlxdgsrn-lzs-20" edge="1">
          <mxGeometry relative="1" as="geometry">
            <Array as="points">
              <mxPoint x="-630" y="410" />
              <mxPoint x="-630" y="275" />
            </Array>
          </mxGeometry>
        </mxCell>
        <mxCell id="xQBhhkXORlxdgsrn-lzs-30" style="edgeStyle=orthogonalEdgeStyle;rounded=0;orthogonalLoop=1;jettySize=auto;html=1;entryX=0;entryY=0.5;entryDx=0;entryDy=0;exitX=0.5;exitY=0.5;exitDx=0;exitDy=0;exitPerimeter=0;endArrow=none;startFill=0;" parent="1" source="xQBhhkXORlxdgsrn-lzs-18" target="xQBhhkXORlxdgsrn-lzs-21" edge="1">
          <mxGeometry relative="1" as="geometry">
            <Array as="points">
              <mxPoint x="-630" y="420" />
              <mxPoint x="-630" y="585" />
            </Array>
          </mxGeometry>
        </mxCell>
        <mxCell id="xQBhhkXORlxdgsrn-lzs-31" style="edgeStyle=orthogonalEdgeStyle;rounded=0;orthogonalLoop=1;jettySize=auto;html=1;exitX=0.5;exitY=0.5;exitDx=0;exitDy=0;exitPerimeter=0;endArrow=none;startFill=0;" parent="1" target="xQBhhkXORlxdgsrn-lzs-22" edge="1">
          <mxGeometry relative="1" as="geometry">
            <mxPoint x="-765" y="420" as="sourcePoint" />
            <mxPoint x="-500" y="605" as="targetPoint" />
            <Array as="points">
              <mxPoint x="-765" y="430" />
              <mxPoint x="-680" y="430" />
              <mxPoint x="-680" y="655" />
            </Array>
          </mxGeometry>
        </mxCell>
        <mxCell id="xQBhhkXORlxdgsrn-lzs-50" style="edgeStyle=orthogonalEdgeStyle;rounded=0;orthogonalLoop=1;jettySize=auto;html=1;exitX=1;exitY=0.3333333333333333;exitDx=0;exitDy=0;exitPerimeter=0;entryX=0;entryY=0.5;entryDx=0;entryDy=0;endArrow=none;startFill=0;" parent="1" source="xQBhhkXORlxdgsrn-lzs-18" target="xQBhhkXORlxdgsrn-lzs-48" edge="1">
          <mxGeometry relative="1" as="geometry">
            <Array as="points">
              <mxPoint x="-630" y="410" />
              <mxPoint x="-630" y="334" />
            </Array>
          </mxGeometry>
        </mxCell>
        <mxCell id="xQBhhkXORlxdgsrn-lzs-51" style="edgeStyle=orthogonalEdgeStyle;rounded=0;orthogonalLoop=1;jettySize=auto;html=1;endArrow=none;startFill=0;" parent="1" source="xQBhhkXORlxdgsrn-lzs-18" target="xQBhhkXORlxdgsrn-lzs-49" edge="1">
          <mxGeometry relative="1" as="geometry">
            <Array as="points">
              <mxPoint x="-630" y="420" />
              <mxPoint x="-630" y="455" />
            </Array>
          </mxGeometry>
        </mxCell>
        <mxCell id="6i5COXpW8cuyLq5w-r1R-2" style="edgeStyle=orthogonalEdgeStyle;rounded=0;orthogonalLoop=1;jettySize=auto;html=1;endArrow=none;startFill=0;" edge="1" parent="1" source="xQBhhkXORlxdgsrn-lzs-18" target="6i5COXpW8cuyLq5w-r1R-1">
          <mxGeometry relative="1" as="geometry">
            <Array as="points">
              <mxPoint x="-630" y="410" />
              <mxPoint x="-630" y="395" />
            </Array>
          </mxGeometry>
        </mxCell>
        <mxCell id="6i5COXpW8cuyLq5w-r1R-4" style="edgeStyle=orthogonalEdgeStyle;rounded=0;orthogonalLoop=1;jettySize=auto;html=1;entryX=0;entryY=0.5;entryDx=0;entryDy=0;endArrow=none;startFill=0;" edge="1" parent="1" source="xQBhhkXORlxdgsrn-lzs-18" target="6i5COXpW8cuyLq5w-r1R-3">
          <mxGeometry relative="1" as="geometry">
            <Array as="points">
              <mxPoint x="-630" y="420" />
              <mxPoint x="-630" y="525" />
            </Array>
          </mxGeometry>
        </mxCell>
        <mxCell id="xQBhhkXORlxdgsrn-lzs-18" value="Bibliotecario" style="shape=umlActor;verticalLabelPosition=bottom;verticalAlign=top;html=1;outlineConnect=0;" parent="1" vertex="1">
          <mxGeometry x="-780" y="390" width="30" height="60" as="geometry" />
        </mxCell>
        <mxCell id="xQBhhkXORlxdgsrn-lzs-46" style="edgeStyle=orthogonalEdgeStyle;rounded=0;orthogonalLoop=1;jettySize=auto;html=1;entryX=0.5;entryY=0;entryDx=0;entryDy=0;endArrow=open;startFill=0;endFill=0;dashed=1;" parent="1" source="xQBhhkXORlxdgsrn-lzs-19" target="xQBhhkXORlxdgsrn-lzs-45" edge="1">
          <mxGeometry relative="1" as="geometry" />
        </mxCell>
        <mxCell id="xQBhhkXORlxdgsrn-lzs-19" value="Cadastrar Usuário" style="ellipse;whiteSpace=wrap;html=1;" parent="1" vertex="1">
          <mxGeometry x="-550" y="195" width="120" height="50" as="geometry" />
        </mxCell>
        <mxCell id="xQBhhkXORlxdgsrn-lzs-20" value="Cadastrar Livro" style="ellipse;whiteSpace=wrap;html=1;" parent="1" vertex="1">
          <mxGeometry x="-550" y="250" width="120" height="50" as="geometry" />
        </mxCell>
        <mxCell id="xQBhhkXORlxdgsrn-lzs-41" style="edgeStyle=orthogonalEdgeStyle;rounded=0;orthogonalLoop=1;jettySize=auto;html=1;entryX=0;entryY=0.5;entryDx=0;entryDy=0;dashed=1;endArrow=open;endFill=0;exitX=1;exitY=0.5;exitDx=0;exitDy=0;" parent="1" source="xQBhhkXORlxdgsrn-lzs-21" target="xQBhhkXORlxdgsrn-lzs-39" edge="1">
          <mxGeometry relative="1" as="geometry">
            <Array as="points">
              <mxPoint x="-350" y="585" />
              <mxPoint x="-350" y="585" />
            </Array>
          </mxGeometry>
        </mxCell>
        <mxCell id="xQBhhkXORlxdgsrn-lzs-43" value="&amp;lt;&amp;lt; include &amp;gt;&amp;gt;" style="edgeLabel;html=1;align=center;verticalAlign=middle;resizable=0;points=[];" parent="xQBhhkXORlxdgsrn-lzs-41" vertex="1" connectable="0">
          <mxGeometry x="-0.1429" y="3" relative="1" as="geometry">
            <mxPoint x="2" y="2" as="offset" />
          </mxGeometry>
        </mxCell>
        <mxCell id="xQBhhkXORlxdgsrn-lzs-21" value="Realizar Empréstimo" style="ellipse;whiteSpace=wrap;html=1;" parent="1" vertex="1">
          <mxGeometry x="-550" y="560" width="120" height="50" as="geometry" />
        </mxCell>
        <mxCell id="xQBhhkXORlxdgsrn-lzs-42" style="edgeStyle=orthogonalEdgeStyle;rounded=0;orthogonalLoop=1;jettySize=auto;html=1;dashed=1;endArrow=open;endFill=0;entryX=0.5;entryY=1;entryDx=0;entryDy=0;" parent="1" source="xQBhhkXORlxdgsrn-lzs-22" target="xQBhhkXORlxdgsrn-lzs-39" edge="1">
          <mxGeometry relative="1" as="geometry">
            <Array as="points">
              <mxPoint x="-240" y="650" />
            </Array>
          </mxGeometry>
        </mxCell>
        <mxCell id="xQBhhkXORlxdgsrn-lzs-22" value="Realizar Devolução" style="ellipse;whiteSpace=wrap;html=1;" parent="1" vertex="1">
          <mxGeometry x="-550" y="630" width="120" height="50" as="geometry" />
        </mxCell>
        <mxCell id="xQBhhkXORlxdgsrn-lzs-39" value="Emitir Comprovante" style="ellipse;whiteSpace=wrap;html=1;" parent="1" vertex="1">
          <mxGeometry x="-300" y="560" width="120" height="50" as="geometry" />
        </mxCell>
        <mxCell id="xQBhhkXORlxdgsrn-lzs-44" value="&amp;lt;&amp;lt; include &amp;gt;&amp;gt;" style="edgeLabel;html=1;align=center;verticalAlign=middle;resizable=0;points=[];" parent="1" vertex="1" connectable="0">
          <mxGeometry x="-370" y="685" as="geometry">
            <mxPoint x="26" y="-37" as="offset" />
          </mxGeometry>
        </mxCell>
        <mxCell id="xQBhhkXORlxdgsrn-lzs-45" value="Enviar e-mail de&lt;div&gt;confirmação&lt;/div&gt;" style="ellipse;whiteSpace=wrap;html=1;" parent="1" vertex="1">
          <mxGeometry x="-340" y="245" width="120" height="50" as="geometry" />
        </mxCell>
        <mxCell id="xQBhhkXORlxdgsrn-lzs-47" value="&amp;lt;&amp;lt; include &amp;gt;&amp;gt;" style="edgeLabel;html=1;align=center;verticalAlign=middle;resizable=0;points=[];" parent="1" vertex="1" connectable="0">
          <mxGeometry x="-350" y="218" as="geometry" />
        </mxCell>
        <mxCell id="xQBhhkXORlxdgsrn-lzs-48" value="Editar Livro" style="ellipse;whiteSpace=wrap;html=1;" parent="1" vertex="1">
          <mxGeometry x="-550" y="309" width="120" height="50" as="geometry" />
        </mxCell>
        <mxCell id="xQBhhkXORlxdgsrn-lzs-49" value="Deletar Livro" style="ellipse;whiteSpace=wrap;html=1;" parent="1" vertex="1">
          <mxGeometry x="-550" y="430" width="120" height="50" as="geometry" />
        </mxCell>
        <mxCell id="6i5COXpW8cuyLq5w-r1R-1" value="Listar Livro" style="ellipse;whiteSpace=wrap;html=1;" vertex="1" parent="1">
          <mxGeometry x="-550" y="370" width="120" height="50" as="geometry" />
        </mxCell>
        <mxCell id="6i5COXpW8cuyLq5w-r1R-3" value="Consultar Disponibilidade" style="ellipse;whiteSpace=wrap;html=1;" vertex="1" parent="1">
          <mxGeometry x="-550" y="500" width="120" height="50" as="geometry" />
        </mxCell>
      </root>
    </mxGraphModel>
  </diagram>
</mxfile>
